<?xml version="1.0" encoding="UTF-8"?>
<svg id="Calque_1" xmlns="http://www.w3.org/2000/svg" version="1.1" viewBox="0 0 24 24">
  <!-- Generator: Adobe Illustrator 29.8.1, SVG Export Plug-In . SVG Version: 2.1.1 Build 2)  -->
  <defs>
    <style>
      .st0 {
        fill: #c5cf90;
      }
    </style>
  </defs>
  <path class="st0" d="M19.98,22.68c-.07,0-.15,0-.23-.01-3.19-.35-6.29-1.45-8.97-3.19-2.49-1.58-4.64-3.73-6.23-6.23-1.74-2.69-2.84-5.8-3.18-8.99-.07-.74.16-1.46.63-2.02.47-.56,1.13-.91,1.86-.98.08,0,.16,0,.25,0h3.03c1.36,0,2.52,1.01,2.72,2.37.12.91.34,1.8.66,2.65.38,1,.13,2.14-.62,2.9l-.86.86c1.24,2.01,2.93,3.7,4.94,4.94l.86-.86c.76-.76,1.9-1,2.9-.62.85.32,1.74.54,2.64.66,1.39.2,2.4,1.39,2.37,2.78v2.99c0,.73-.28,1.42-.8,1.95-.52.52-1.21.81-1.94.81h-.03ZM7.13,2.75h-3.13c-.33.04-.63.19-.85.45-.21.26-.32.58-.29.91.31,2.95,1.33,5.83,2.95,8.33,1.47,2.31,3.46,4.31,5.77,5.77,2.49,1.62,5.36,2.64,8.31,2.96h.09c.34,0,.66-.13.89-.37.24-.24.36-.55.36-.89v-3.02c.02-.63-.45-1.18-1.08-1.27-1-.13-2-.38-2.97-.74-.46-.17-.97-.06-1.32.28l-1.27,1.27c-.24.24-.61.29-.9.12-2.62-1.49-4.79-3.66-6.28-6.28-.17-.29-.12-.66.12-.9l1.27-1.27c.34-.34.45-.86.28-1.32-.36-.96-.61-1.96-.74-2.98-.09-.61-.62-1.07-1.24-1.07l.03.02ZM19,9.7c-.35,0-.67-.25-.74-.61-.33-1.71-1.65-3.02-3.36-3.36-.41-.08-.67-.47-.59-.88.08-.41.47-.67.88-.59,2.31.45,4.09,2.23,4.54,4.54.08.41-.19.8-.59.88-.05,0-.1.01-.14.01h0ZM23,9.69c-.38,0-.7-.28-.74-.67-.43-3.86-3.43-6.85-7.29-7.28-.41-.05-.71-.42-.66-.83.05-.41.41-.7.83-.66,4.56.51,8.1,4.04,8.61,8.6.05.41-.25.78-.66.83h-.09Z"/>
</svg>