<?xml version="1.0" encoding="UTF-8"?>
<svg id="Calque_1" xmlns="http://www.w3.org/2000/svg" version="1.1" viewBox="0 0 24 24">
  <!-- Generator: Adobe Illustrator 29.8.1, SVG Export Plug-In . SVG Version: 2.1.1 Build 2)  -->
  <path d="M20,20.75H4c-1.52,0-2.75-1.23-2.75-2.75V6c0-1.52,1.23-2.75,2.75-2.75h16c1.52,0,2.75,1.23,2.75,2.75v12c0,1.52-1.23,2.75-2.75,2.75ZM4,4.75c-.69,0-1.25.56-1.25,1.25v12c0,.69.56,1.25,1.25,1.25h16c.69,0,1.25-.56,1.25-1.25V6c0-.69-.56-1.25-1.25-1.25H4Z"/>
  <path d="M12,13.75c-.15,0-.3-.04-.43-.14L1.57,6.61c-.34-.24-.42-.71-.18-1.04.24-.34.71-.42,1.04-.18l9.57,6.7,9.57-6.7c.34-.24.81-.15,1.04.18.24.34.16.81-.18,1.04l-10,7c-.13.09-.28.14-.43.14Z"/>
</svg>