<?xml version="1.0" encoding="UTF-8"?>
<svg id="Calque_1" xmlns="http://www.w3.org/2000/svg" version="1.1" viewBox="0 0 24 24">
  <!-- Generator: Adobe Illustrator 29.8.1, SVG Export Plug-In . SVG Version: 2.1.1 Build 2)  -->
  <path d="M12,23.75c-.15,0-.29-.04-.42-.13-.38-.25-9.33-6.31-9.33-13.62C2.25,4.62,6.62.25,12,.25s9.75,4.37,9.75,9.75c0,7.32-8.95,13.37-9.33,13.62-.13.08-.27.13-.42.13ZM12,1.75C7.45,1.75,3.75,5.45,3.75,10c0,5.68,6.52,10.82,8.25,12.08,1.73-1.26,8.25-6.4,8.25-12.08,0-4.55-3.7-8.25-8.25-8.25Z"/>
  <path d="M12,13.75c-2.07,0-3.75-1.68-3.75-3.75s1.68-3.75,3.75-3.75,3.75,1.68,3.75,3.75-1.68,3.75-3.75,3.75ZM12,7.75c-1.24,0-2.25,1.01-2.25,2.25s1.01,2.25,2.25,2.25,2.25-1.01,2.25-2.25-1.01-2.25-2.25-2.25Z"/>
</svg>