<?xml version="1.0" encoding="UTF-8"?>
<svg id="Calque_1" xmlns="http://www.w3.org/2000/svg" version="1.1" viewBox="0 0 24 24">
  <!-- Generator: Adobe Illustrator 29.8.1, SVG Export Plug-In . SVG Version: 2.1.1 Build 2)  -->
  <path d="M22,21.75h-4c-.41,0-.75-.34-.75-.75v-7c0-.69-.56-1.25-1.25-1.25s-1.25.56-1.25,1.25v7c0,.41-.34.75-.75.75h-4c-.41,0-.75-.34-.75-.75v-7c0-3.72,3.03-6.75,6.75-6.75s6.75,3.03,6.75,6.75v7c0,.41-.34.75-.75.75ZM18.75,20.25h2.5v-6.25c0-2.9-2.36-5.25-5.25-5.25s-5.25,2.35-5.25,5.25v6.25h2.5v-6.25c0-1.52,1.23-2.75,2.75-2.75s2.75,1.23,2.75,2.75v6.25Z"/>
  <path d="M6,21.75H2c-.41,0-.75-.34-.75-.75v-12c0-.41.34-.75.75-.75h4c.41,0,.75.34.75.75v12c0,.41-.34.75-.75.75ZM2.75,20.25h2.5v-10.5h-2.5v10.5Z"/>
  <path d="M4,6.75c-1.52,0-2.75-1.23-2.75-2.75s1.23-2.75,2.75-2.75,2.75,1.23,2.75,2.75-1.23,2.75-2.75,2.75ZM4,2.75c-.69,0-1.25.56-1.25,1.25s.56,1.25,1.25,1.25,1.25-.56,1.25-1.25-.56-1.25-1.25-1.25Z"/>
</svg>