<?xml version="1.0" encoding="UTF-8"?>
<svg id="Calque_1" xmlns="http://www.w3.org/2000/svg" version="1.1" viewBox="0 0 1000 386.38">
  <!-- Generator: Adobe Illustrator 29.8.1, SVG Export Plug-In . SVG Version: 2.1.1 Build 2)  -->
  <defs>
    <style>
      .st0 {
        fill: #c5cf90;
      }

      .st1 {
        fill: #fff;
      }

      .st2 {
        fill: #e4e9cc;
      }

      .st3 {
        fill: #dfe4c3;
      }
    </style>
  </defs>
  <rect class="st1" x="0" y="-306.81" width="1000" height="1000"/>
  <g>
    <polygon class="st3" points="706.83 111.38 782.67 117.52 724.29 129.05 706.83 111.38"/>
    <path class="st2" d="M782.67,117.52l-.23.3c-2.6.8-5.07,1.74-7.41,2.8-.27.11-.53.24-.79.36h0c-.39.18-.77.37-1.15.56-.25.12-.5.25-.74.38,0,0,0,.01-.02.01h0s-.02.01-.03.02c-2.9,1.5-5.57,3.22-8.03,5.16-6.94,5.46-12.05,12.62-15.15,21.12-.36,1-.7,2.01-1.01,3.05-.48,1.64-.9,3.32-1.25,5.05l-9.23-10.31-7.5-8.37-2.36-2.64,54.92-17.49Z"/>
    <polygon class="st0" points="724.29 129.05 720.62 150.62 731.23 136.12 782.67 117.52 724.29 129.05"/>
    <polygon class="st0" points="720.62 150.62 739.12 145.61 731.23 136.12 720.62 150.62"/>
  </g>
  <g>
    <path class="st0" d="M170.83,111.85l-.24-1.96c-.17-1.39-1.44-2.37-2.82-2.2l-12.71,1.56c-1.38.17-2.65-.81-2.82-2.2l-2.32-18.92c-.17-1.39-1.43-2.38-2.82-2.21l-1.96.24c-1.38.18-2.37,1.44-2.2,2.82l3.19,25.9c.17,1.39,1.43,2.37,2.82,2.2l19.68-2.42c1.38-.17,2.37-1.43,2.2-2.81Z"/>
    <path class="st0" d="M216.24,93.94l-9.72-1.83-9.76-1.83c-1.38-.26-2.7.64-2.96,2.02l-4.81,25.64c-.26,1.37.64,2.7,2.01,2.95l19.49,3.66c1.37.26,2.7-.64,2.95-2.01l.37-1.94c.26-1.37-.65-2.69-2.02-2.95l-12.58-2.37c-1.21-.22-2.06-1.29-2.06-2.48,0-.16.01-.31.04-.47.26-1.37,1.58-2.27,2.95-2.02l7.3,1.38c1.38.25,2.7-.65,2.96-2.02l.35-1.89c.26-1.38-.64-2.7-2.02-2.96l-7.3-1.37c-1.22-.23-2.06-1.3-2.06-2.49,0-.15.01-.31.04-.46.26-1.37,1.58-2.28,2.95-2.02l12.59,2.37c1.37.25,2.69-.65,2.95-2.02l.36-1.94c.26-1.37-.64-2.69-2.02-2.95Z"/>
    <path class="st0" d="M255.2,126.59c-.18-1.75-.58-3.22-1.21-4.4-.62-1.18-1.38-2.04-2.28-2.58-.89-.54-1.89-.95-3-1.21-1.1-.26-2.22-.37-3.34-.32-1.11.05-2.21.09-3.29.13-1.08.03-2.03.05-2.87.06-.84.01-1.53-.15-2.07-.47-.54-.32-.85-.81-.91-1.46-.07-.65.19-1.27.78-1.86.59-.58,1.35-1,2.28-1.26.93-.26,1.91-.38,2.93-.38s1.98.28,2.87.82c.15.09.29.18.43.29,1.09.84,2.68.55,3.56-.52l1.49-1.82c.95-1.16.72-2.91-.54-3.71-.46-.28-.97-.54-1.52-.77-1.55-.64-3.19-1.02-4.93-1.13-1.73-.11-3.5.04-5.3.46-1.8.42-3.4,1.07-4.8,1.94-1.4.88-2.5,2.07-3.31,3.57-.81,1.51-1.12,3.2-.93,5.07.17,1.75.57,3.22,1.2,4.4.63,1.18,1.39,2.04,2.3,2.58,1.13.67,2.4,1.13,3.8,1.37.93.17,1.88.19,2.81.14,1.02-.04,2.02-.08,3-.11,1.08-.03,2.03-.05,2.87-.06.84-.01,1.53.15,2.07.47.55.32.85.81.92,1.46.06.65-.2,1.27-.79,1.85-.58.59-1.34,1.01-2.28,1.27-.93.25-1.91.38-2.93.38-1.02-.01-1.97-.28-2.87-.82-.15-.09-.29-.18-.42-.29-1.1-.84-2.69-.55-3.56.52l-1.5,1.82c-.94,1.15-.72,2.91.55,3.7.46.29.96.55,1.51.78,1.55.64,3.19,1.01,4.93,1.13,1.73.11,3.5-.05,5.3-.49,1.8-.43,3.4-1.08,4.8-1.94,1.4-.86,2.5-2.04,3.31-3.55.81-1.5,1.12-3.19.94-5.06Z"/>
    <path class="st0" d="M339.43,114.4c-.38-2.6-1.63-4.69-3.75-6.26-2.11-1.58-4.47-2.18-7.06-1.8l-11.54,1.68c-2.02.3-3.42,2.18-3.12,4.2l3.78,25.91c.1.69.74,1.17,1.43,1.07l4.46-.65c.69-.1,1.17-.74,1.06-1.43l-1.38-9.46c-.1-.69.38-1.33,1.07-1.43l6.99-1.02c2.6-.38,4.68-1.63,6.26-3.74,1.58-2.12,2.17-4.47,1.8-7.07ZM332,117.29c-.41.57-.96.91-1.64,1.01l-6.99,1.02c-.69.1-1.33-.38-1.43-1.07l-.28-1.89c-.15-1.03.57-1.99,1.59-2.14l6.38-.93c.68-.1,1.3.06,1.86.48.55.42.88.96.98,1.64.1.68-.06,1.31-.47,1.88Z"/>
    <path class="st0" d="M390.04,86.92l-19.75-1.85c-1.39-.13-2.62.89-2.75,2.28l-.18,1.96c-.13,1.39.89,2.62,2.28,2.75l3.87.37c1.39.13,2.42,1.36,2.28,2.75l-1.78,18.98c-.13,1.39.89,2.63,2.28,2.76l1.92.18c1.39.13,2.62-.89,2.75-2.28l1.79-18.99c.13-1.39,1.36-2.41,2.75-2.28l3.88.37c1.39.13,2.62-.89,2.75-2.28l.19-1.96c.13-1.39-.89-2.63-2.28-2.76Z"/>
    <path class="st0" d="M417.68,113.61l-3.02-25.92c-.16-1.39-1.42-2.38-2.8-2.22l-1.96.23c-1.39.16-2.38,1.42-2.22,2.8l3.09,26.56c.13,1.03,1.06,1.77,2.1,1.65l2.59-.3c1.39-.16,2.38-1.42,2.22-2.8Z"/>
    <path class="st0" d="M453.97,89.74l-19.62-2.84c-1.38-.2-2.67.76-2.87,2.14l-.28,1.95c-.2,1.38.76,2.66,2.14,2.86l3.86.56c1.38.2,2.34,1.48,2.14,2.87l-2.82,19.43c-.08.52.06,1.02.35,1.41.29.42.76.72,1.3.81l.96.14,2.09.3c1.06.15,2.06-.59,2.21-1.65l2.82-19.44c.2-1.38,1.48-2.34,2.86-2.14l3.85.56c1.39.2,2.67-.76,2.87-2.14l.28-1.95c.2-1.39-.76-2.67-2.14-2.87Z"/>
    <path class="st0" d="M487.22,122.42c-.02-1.34-.31-2.45-.85-3.34-.55-.89-1.27-1.71-2.13-2.44-.86-.73-1.81-1.34-2.83-1.8-1.02-.46-2.01-.92-2.99-1.38-.97-.45-1.84-.88-2.58-1.25-.75-.38-1.3-.83-1.63-1.37-.34-.53-.39-1.1-.15-1.71s.75-1.04,1.54-1.3c.79-.25,1.65-.28,2.61-.09.94.2,1.88.53,2.78.99.91.47,1.64,1.14,2.19,2.04.09.15.17.3.24.45.6,1.25,2.14,1.72,3.41,1.17l2.15-.95c1.37-.6,1.97-2.27,1.2-3.55-.28-.46-.61-.93-1-1.38-1.09-1.27-2.38-2.36-3.88-3.24-1.5-.9-3.14-1.56-4.94-2.01-1.79-.44-3.51-.6-5.16-.46-1.63.14-3.16.71-4.57,1.68-1.41.96-2.46,2.33-3.14,4.08-.64,1.64-.94,3.13-.92,4.47.01,1.34.31,2.45.87,3.35.74,1.17,1.73,2.2,2.96,3.1.63.45,1.32.84,2.03,1.16,1,.46,1.99.91,2.94,1.36.98.46,1.84.88,2.59,1.25.75.37,1.29.83,1.63,1.36.34.53.38,1.11.14,1.72-.24.61-.75,1.04-1.53,1.29-.79.26-1.66.29-2.6.09-.96-.19-1.88-.52-2.79-.99-.9-.46-1.64-1.14-2.18-2.02-.08-.14-.15-.26-.22-.4-.63-1.28-2.2-1.76-3.49-1.19l-1.87.82c-1.57.69-2.13,2.62-1.19,4.03.22.33.48.67.76,1,1.08,1.27,2.38,2.36,3.88,3.24,1.49.88,3.14,1.55,4.94,1.98,1.81.43,3.52.58,5.16.45,1.64-.12,3.15-.68,4.56-1.65,1.4-.98,2.45-2.33,3.13-4.08.64-1.64.95-3.13.93-4.47Z"/>
    <path class="st0" d="M348.87,97.1c.91-.84,2.03-1.26,3.36-1.26s2.46.42,3.36,1.26c.91.84,1.36,2,1.36,3.46v.1c0,.32-.02.67-.05,1.05-.03.38-.11,1-.24,1.86-.13.86-.37,1.65-.72,2.36-.35.72-.78,1.43-1.29,2.15-.51.72-1.23,1.29-2.15,1.72-.92.43-1.97.64-3.15.64h-.72v-3.72h.72c.48,0,.94-.14,1.38-.43.45-.29.73-.64.86-1.05-1.18-.13-2.16-.61-2.93-1.46-.78-.84-1.17-1.92-1.17-3.22,0-1.46.45-2.62,1.36-3.46Z"/>
  </g>
  <g>
    <path class="st0" d="M189.68,133.23l-51.08-3.42c-.17-.01-.34-.01-.52-.01-.39.01-.78.04-1.16.11-.06.01-.11.02-.17.03-.37.08-.74.18-1.09.31-.12.04-.24.08-.35.14-.34.14-.67.31-.98.51-.37.23-.71.5-1.03.8-.79.74-1.42,1.66-1.81,2.7-.15.42-.27.86-.35,1.31-.04.23-.06.46-.08.69l-8.5,127.12c-.26,3.9,2.69,7.28,6.59,7.54l28.25,1.89c.16,0,.32,0,.48,0h.06c.17,0,.34,0,.5-.03.06,0,.12-.01.18-.01.17-.02.33-.04.49-.07.06-.01.11-.02.17-.03.16-.03.31-.07.47-.11.2-.06.4-.12.6-.19.11-.05.23-.09.34-.15.34-.13.67-.31.98-.51.37-.23.72-.5,1.03-.8.08-.07.16-.15.23-.22.38-.38.72-.82,1-1.29.57-.94.93-2.02,1.01-3.19l1.4-20.95c.02-.23.04-.46.08-.69.07-.45.19-.89.35-1.31s.35-.81.57-1.19c.23-.38.49-.73.78-1.05,1.3-1.46,3.19-2.37,5.27-2.37.16,0,.32,0,.48.02l10.36.69c1.82.12,3.6.18,5.35.18,8.43,0,16.02-1.39,22.67-3.9.83-.31,1.65-.64,2.45-.99.8-.35,1.59-.72,2.37-1.1.77-.38,1.53-.78,2.27-1.19.37-.21.74-.42,1.11-.64,1.1-.64,2.16-1.32,3.18-2.04,2.39-1.66,4.59-3.51,6.61-5.52.87-.86,1.69-1.75,2.49-2.67,3.16-3.66,5.76-7.76,7.75-12.19l.02-.04c.67-1.48,1.27-3,1.8-4.55.4-1.16.76-2.34,1.08-3.54.17-.63.33-1.27.47-1.91v-.02c.24-.97.44-1.95.61-2.94.14-.78.26-1.56.36-2.34.18-1.3.31-2.63.4-3.96,2.32-34.61-15.29-54.23-55.54-56.92ZM201.2,187.2c-.3,4.51-1.74,7.95-4.25,10.35-.17.16-.34.32-.51.47-1.76,1.5-3.99,2.52-6.67,3.08-.2.05-.42.09-.63.12-1.43.26-2.99.39-4.67.39-.79,0-1.6-.03-2.43-.08l-5.65-.38c-3.9-.26-6.85-3.63-6.59-7.53l1.12-16.72c.02-.23.04-.46.08-.69.07-.45.19-.89.35-1.31.39-1.04,1.01-1.96,1.8-2.7.32-.3.67-.57,1.03-.8.37-.24.76-.44,1.17-.6.41-.17.84-.29,1.27-.37.44-.08.89-.13,1.35-.13.16,0,.32,0,.48.01l5.18.35c12.24.82,18.25,6.42,17.57,16.54Z"/>
    <path class="st0" d="M371.74,286.25l-4.61-11.35-1.57-.13c-4.54-.39-8.67-2.53-11.6-6.02-2.94-3.49-4.34-7.92-3.95-12.46l1.67-19.36-31.12-76.51c-.07-.17-.14-.33-.22-.49-.16-.32-.34-.63-.54-.91-.3-.44-.65-.83-1.03-1.17-.13-.12-.26-.23-.4-.34-.41-.32-.85-.59-1.32-.82-.3-.15-.62-.27-.95-.37-.2-.06-.41-.12-.62-.16-.55-.12-1.12-.17-1.7-.15l-40.39,1.29c-2.95.09-5.54,2.02-6.48,4.82l-13.47,40.13-3.58,10.65-26.21,78.07c-1.54,4.6,1.89,9.33,6.7,9.33h.24l28.36-.91c3.04-.1,5.68-2.12,6.55-5.03l3.68-12.19c.88-2.91,3.52-4.93,6.55-5.03l41.43-1.33h.23c.19,0,.37.01.55.02.36.03.72.09,1.06.17.18.04.36.09.54.14.26.09.5.18.74.29.24.11.48.24.71.37.46.27.89.59,1.28.97.31.29.59.62.84.96.03.04.05.07.07.1.25.35.47.73.65,1.13.08.17.15.34.21.52l4.28,11.81c.13.35.28.69.46,1.01.17.32.37.62.58.9h0c.22.3.46.56.72.8.78.75,1.71,1.3,2.73,1.62.12.04.25.08.38.11.57.15,1.16.23,1.77.23h.23l30.21-.97c4.93-.16,8.19-5.18,6.33-9.74ZM300.35,242.36l-9.57.31h-.23c-1.75,0-3.32-.63-4.54-1.65-.17-.15-.34-.3-.5-.47-1.73-1.76-2.53-4.4-1.72-7.03l2.66-8.65c2.78-8.83,5.1-17.64,7.66-26.21l.47-.02c2.86,8.41,5.97,17.04,9.08,25.68l3.12,8.54c1.65,4.53-1.61,9.35-6.43,9.5Z"/>
    <path class="st0" d="M378.58,123.77c-.21-.02-.41-.03-.61-.03-3.64,0-6.73,2.79-7.05,6.47l-9.07,105.18-1.87,21.75c-.01.06-.01.12-.01.18-.14,2.23.77,4.29,2.31,5.68,1.1,1,2.54,1.67,4.14,1.8l7.67.66,20.54,1.78c.26.02.52.02.78.01.16,0,.31-.01.46-.03.16-.01.32-.03.48-.06.14-.02.28-.04.42-.07.16-.04.33-.09.49-.13.12-.04.24-.07.36-.11.27-.1.54-.21.8-.34.38-.19.75-.42,1.09-.68,0,0,0,0,.01,0,.17-.13.33-.27.49-.41,1.27-1.16,2.12-2.78,2.28-4.62l1.8-20.92c.32-3.68,3.41-6.47,7.04-6.47.21,0,.41.01.62.03l10.34.89c2.33.2,4.6.3,6.81.3,7.7,0,14.69-1.19,20.92-3.35.83-.29,1.64-.6,2.44-.92.41-.16.8-.32,1.2-.49.79-.35,1.56-.7,2.32-1.07.38-.19.76-.38,1.13-.57.74-.39,1.47-.79,2.19-1.21.36-.21.72-.43,1.07-.64.7-.44,1.39-.89,2.07-1.35,2.42-1.67,4.66-3.52,6.7-5.54l-2.04-61.3c-.15-4.55,1.48-8.9,4.6-12.23.32-.34.65-.67,1-.98-8.99-9.43-23.18-15.1-42.91-16.8l-51.01-4.4ZM440.07,182.35c-.29,3.36-1.2,6.12-2.7,8.27-.15.22-.31.43-.47.63-.69.87-1.49,1.63-2.39,2.27-.29.22-.59.42-.9.6-.27.16-.55.31-.83.45-.35.18-.71.35-1.08.5-.23.09-.46.18-.69.26-2.1.74-4.55,1.11-7.33,1.11-.48,0-.98-.01-1.49-.03-.51-.02-1.03-.06-1.56-.1l-5.64-.49c-3.89-.34-6.78-3.77-6.44-7.66l1.44-16.69c.02-.23.05-.46.09-.68.04-.22.09-.44.16-.66.12-.42.28-.84.47-1.22.3-.59.67-1.13,1.1-1.6.07-.08.15-.16.23-.24.07-.08.15-.15.23-.22,1.27-1.16,2.95-1.85,4.76-1.85.21,0,.41.01.62.03l5.17.44c12.22,1.06,18.12,6.78,17.25,16.88Z"/>
    <path class="st0" d="M523.34,276.68c-.09-.08-.18-.16-.27-.24-3.94-3.46-6.24-8.68-5.75-14.3l3.81-43.94.19-2.21-.19-5.76-1.79-53.79c0-.24-.03-.47-.06-.71-.04-.29-.09-.57-.16-.84-.04-.16-.09-.31-.14-.46-.06-.2-.14-.39-.22-.57-.1-.24-.22-.47-.35-.7-.33-.58-.75-1.11-1.23-1.58-.32-.3-.67-.58-1.04-.83-1.11-.73-2.44-1.15-3.87-1.15h-.24l-23.69.79-4.61.15c-2.12.07-3.99,1.07-5.23,2.6-1.05,1.28-1.66,2.93-1.6,4.71l1.61,48.34.57,17.07,2.06,61.92c0,.24.03.47.06.71.04.29.09.57.16.84.04.16.09.31.14.46.06.2.14.39.22.57.1.24.22.47.35.7.33.58.74,1.12,1.23,1.58.32.3.67.58,1.04.83.14.09.29.18.43.26.44.24.9.44,1.39.59.43.14.88.23,1.35.27.31.03.62.04.94.03l28.29-.94c3.91-.13,6.97-3.4,6.84-7.31l-.24-7.09Z"/>
    <path class="st0" d="M644.21,138.16l-98.25-8.53c-.21-.01-.42-.02-.62-.02-.33,0-.65.03-.97.07-.03,0-.06.01-.09.01-.31.05-.62.11-.91.2-.84.24-1.61.64-2.3,1.16-.17.13-.33.27-.49.41-.16.14-.31.3-.46.46-.43.47-.8,1-1.1,1.59-.29.58-.51,1.21-.63,1.88-.04.22-.07.45-.09.68l-7.16,82.44-3.86,44.49c-.31,3.6,2.13,6.82,5.59,7.53.28.06.56.11.85.13l98.25,8.53c.21.02.41.03.62.03.67,0,1.33-.1,1.95-.28l-2.18-39.62-.02-.36-52.84-4.58c-3.9-.34-6.78-3.77-6.44-7.66l.06-.71c.18-2.08,1.24-3.86,2.77-5.03.34-.26.71-.49,1.09-.68.96-.49,2.05-.76,3.18-.76.21,0,.41.01.62.03l50.74,4.41-1.78-32.24-.02-.36-46.14-4.01c-3.69-.32-6.47-3.41-6.47-7.04,0-.2,0-.41.03-.62.18-2.08,1.24-3.86,2.77-5.03.34-.26.71-.49,1.09-.68.96-.49,2.05-.76,3.18-.76.21,0,.41.01.62.03l44.13,3.83-.5-9.13c-.25-4.55,1.28-8.93,4.33-12.33,3.04-3.4,7.22-5.41,11.78-5.66l5.78-.32.03-.36.3-3.47c.34-3.9-2.55-7.33-6.44-7.67Z"/>
    <path class="st0" d="M827.69,182.2c-27.76-5.8-29.39-9.93-29.09-14.64.02-.31.06-.62.1-.91.04-.26.1-.52.16-.77.02-.07.04-.13.06-.2.06-.21.12-.42.2-.63.06-.17.13-.34.21-.51.1-.21.2-.42.32-.62,1.68-2.9,5.38-4.69,11.58-4.69.74,0,1.52.02,2.33.08,11.36.73,17.24,5,20.41,14.3.99,2.87,3.7,4.74,6.68,4.74.33,0,.66-.02.99-.07l29.07-4.11c4.15-.59,6.84-4.62,5.89-8.7-5.06-21.53-21.31-38.7-58.42-41.09-2.9-.19-5.69-.28-8.38-.28-5.93,0-11.38.45-16.33,1.33-.83.14-1.64.3-2.43.47-.94.2-1.87.42-2.78.65-.84.22-1.66.44-2.46.69-.8.24-1.59.5-2.36.77-.77.27-1.53.55-2.27.85-1.47.6-2.89,1.25-4.24,1.95-.67.35-1.33.71-1.97,1.09-.32.19-.64.38-.96.58-.93.58-1.83,1.2-2.7,1.84h-.01c-.57.43-1.14.87-1.68,1.33-.82.68-1.6,1.4-2.35,2.13-.49.49-.97,1-1.45,1.51-3.93,4.38-6.73,9.65-8.4,15.73-.12.45-.24.92-.36,1.39-.16.66-.3,1.34-.44,2.02-.44,2.26-.74,4.62-.9,7.08-.08,1.17-.12,2.33-.12,3.48-.09,8.82,1.8,16.84,6.61,23.75,2.47,3.58,5.74,6.87,9.91,9.81,7.52,5.33,18,9.55,32.19,12.43,23.33,4.81,29,8.49,28.61,14.61-.07,1.15-.37,2.15-.88,3.03-.14.25-.3.49-.48.72-.98,1.25-2.44,2.18-4.34,2.8-.34.12-.7.22-1.07.31-1.86.47-4.05.7-6.53.7-.97,0-1.97-.03-3.02-.1-11.12-.72-20.73-6.05-24.62-16.01-.33-.86-.82-1.62-1.42-2.26-.11-.13-.24-.26-.37-.37-.13-.13-.26-.24-.4-.35-.28-.22-.57-.42-.87-.59-.45-.26-.93-.47-1.43-.63-.67-.21-1.37-.32-2.1-.32-.32,0-.64.03-.97.07l-16.1,2.23-12.02,1.66-.89.12c-3.91.54-6.57,4.16-6.03,8.04,0,.08.02.16.03.24,2.23,13.05,8.56,25.61,23.26,34.01,9.21,5.27,21.71,8.89,38.54,9.98,3.22.21,6.31.31,9.28.31,8.7,0,16.29-.88,22.84-2.57,1.75-.45,3.42-.95,5.02-1.52,1.61-.56,3.13-1.18,4.59-1.85.73-.34,1.44-.69,2.13-1.05.69-.37,1.36-.74,2.02-1.13.66-.39,1.3-.8,1.92-1.21.62-.42,1.22-.85,1.81-1.29.3-.22.59-.44.87-.67.85-.68,1.67-1.4,2.45-2.14,3.62-3.45,6.41-7.51,8.41-12.13.29-.66.56-1.33.81-2.01.51-1.36.95-2.77,1.33-4.22.19-.73.37-1.46.53-2.21.16-.74.3-1.5.43-2.27.32-1.91.55-3.9.68-5.94,1.32-20.48-8.05-40.24-48.63-48.77Z"/>
    <path class="st0" d="M777,294l-10.67-14.99c-7.7-10.81-15.01-21.9-21.92-33.23l-.58-.95c-.73-1.21-1.45-3.16-1.45-3.16v.05c-.07-.23-.12-.47-.2-.7-1.14-3.31-2.03-6.8-2.66-10.46-.78-4.57.34-9.33,3.07-13.06,2.75-3.76,6.8-6.18,11.42-6.81l6.77-.94.17-.02c.72-.1,1.26-.69,1.29-1.42,0,0,0-.01,0-.02.02-.46-.18-.9-.52-1.2-.1-.08-.19-.17-.29-.25-1.51-1.35-2.92-2.77-4.22-4.25-8.19-9.31-12.08-21.26-11.6-35.51.02-.5-.21-.99-.62-1.28-.98-.69-2-1.35-3.06-1.96-.96-.57-1.97-1.1-3-1.59-7.94-3.81-17.79-5.67-29.39-5.67-2.11,0-4.28.06-6.51.18l-43.48,2.39-10.08.56-4.39.24c-3.9.22-6.89,3.56-6.68,7.46l.6,10.91.92,16.75.68,12.23,4.25,77.1.56,10.22c.06,1.18.41,2.28.98,3.22.34.58.76,1.1,1.24,1.54,1.27,1.2,2.98,1.93,4.84,1.93.13,0,.27,0,.4-.01l28.27-1.56c3.9-.21,6.89-3.55,6.68-7.46l-1.84-33.21c-.21-3.9,2.78-7.24,6.68-7.46l2.19-.12c.13-.01.26-.01.39-.01,2.13,0,4.13.96,5.47,2.58.19.24.37.48.53.74l24.32,38.83c.16.26.34.51.53.74,1.34,1.62,3.34,2.58,5.47,2.58.13,0,.26,0,.39-.01l45.06-2.48h.32s-.34-.47-.34-.47ZM705.93,217.81l-15.08.83c-.13,0-.26,0-.39,0-1.86,0-3.58-.73-4.85-1.93-.16-.15-.32-.31-.46-.47-.14-.17-.28-.34-.41-.52-.1-.13-.19-.27-.28-.41-.26-.42-.48-.87-.65-1.34-.23-.64-.37-1.32-.41-2.02l-.51-9.18c-.21-3.91,2.78-7.25,6.68-7.46l14.37-.79c.81-.05,1.59-.07,2.35-.07,4.98,0,8.67,1,11.03,3.27.26.25.51.52.74.8.35.42.65.88.92,1.38s.5,1.04.69,1.61c.07.19.13.39.18.59.17.6.3,1.24.39,1.92.06.45.1.92.13,1.41.43,7.77-3.6,11.77-14.44,12.37Z"/>
  </g>
</svg>